<svg width="19" height="20" viewBox="0 0 19 20" fill="none" xmlns="http://www.w3.org/2000/svg">
<g clip-path="url(#clip0_18084_834)">
<path d="M16.625 0.617676H2.375C1.06519 0.617676 0 1.68286 0 2.99268V17.2427C0 18.5525 1.06519 19.6177 2.375 19.6177H9.5V13.0864H7.125V10.1177H9.5V7.74268C9.5 5.77499 11.0948 4.18018 13.0625 4.18018H15.4375V7.14893H14.25C13.5945 7.14893 13.0625 7.08718 13.0625 7.74268V10.1177H16.0312L14.8438 13.0864H13.0625V19.6177H16.625C17.9348 19.6177 19 18.5525 19 17.2427V2.99268C19 1.68286 17.9348 0.617676 16.625 0.617676Z" fill="white"/>
</g>
<defs>
<clipPath id="clip0_18084_834">
<rect width="19" height="19" fill="white" transform="translate(0 0.617676)"/>
</clipPath>
</defs>
</svg>
