<svg width="19" height="20" viewBox="0 0 19 20" fill="none" xmlns="http://www.w3.org/2000/svg">
<g clip-path="url(#clip0_18084_848)">
<path d="M11.1799 8.89729C10.8033 8.36993 10.1855 8.02338 9.49239 8.02338C8.79929 8.02338 8.18152 8.36993 7.80484 8.89729C7.56376 9.24384 7.41309 9.66572 7.41309 10.1177C7.41309 11.2629 8.34727 12.197 9.49239 12.197C10.6375 12.197 11.5717 11.2629 11.5717 10.1177C11.5717 9.66572 11.421 9.24384 11.1799 8.89729Z" fill="white"/>
<path d="M12.4909 8.91229C12.6416 9.21364 12.732 9.6958 12.732 10.1177C12.732 11.8956 11.2855 13.3572 9.49247 13.3572C7.69945 13.3572 6.25298 11.9107 6.25298 10.1177C6.25298 9.68073 6.34338 9.21364 6.49405 8.91229H4.6709V13.7489C4.6709 14.3818 5.22839 14.9393 5.86122 14.9393H13.1237C13.7565 14.9393 14.314 14.3818 14.314 13.7489V8.91229H12.4909Z" fill="white"/>
<path d="M13.7716 5.56731H12.0238V7.57128H14.0127V5.82346V5.55225L13.7716 5.56731Z" fill="white"/>
<path d="M14.2236 0.626587H4.7613C2.13957 0.626587 0 2.76616 0 5.38789V14.8653C0 17.4719 2.13957 19.6115 4.7613 19.6115H14.2387C16.8604 19.6115 19 17.4719 19 14.8502V5.38789C18.9849 2.76616 16.8454 0.626587 14.2236 0.626587ZM15.3688 8.89859V13.7503C15.3688 15.016 14.3894 15.9953 13.1237 15.9953H5.86122C4.59556 15.9953 3.61618 15.016 3.61618 13.7503V8.89859V6.48781C3.61618 5.22215 4.59556 4.24276 5.86122 4.24276H13.1237C14.3894 4.24276 15.3688 5.22215 15.3688 6.48781V8.89859Z" fill="white"/>
</g>
<defs>
<clipPath id="clip0_18084_848">
<rect width="19" height="19" fill="white" transform="translate(0 0.617676)"/>
</clipPath>
</defs>
</svg>
