<svg width="19" height="20" viewBox="0 0 19 20" fill="none" xmlns="http://www.w3.org/2000/svg">
<g clip-path="url(#clip0_18084_841)">
<path d="M15.4375 0.617676H3.56248C1.59482 0.617676 0 2.21249 0 4.18016V16.0552C0 18.0229 1.59482 19.6176 3.56248 19.6176H15.4375C17.4052 19.6176 19 18.0228 19 16.0552V4.18016C19 2.21249 17.4052 0.617676 15.4375 0.617676ZM15.3366 12.2445C15.2724 13.0353 14.6716 14.0447 13.832 14.1908C11.1423 14.3998 7.95506 14.3737 5.16922 14.1908C4.29996 14.0815 3.72879 13.0341 3.66467 12.2445C3.5293 10.5843 3.5293 9.63909 3.66467 7.97896C3.72879 7.18929 4.31423 6.14782 5.16922 6.05285C7.92304 5.82127 11.1281 5.87115 13.832 6.05285C14.7986 6.08845 15.2724 7.08478 15.3366 7.87565C15.4695 9.53578 15.4695 10.5843 15.3366 12.2445Z" fill="white"/>
<path d="M8.3125 12.4927L11.875 10.1177L8.3125 7.74268V12.4927Z" fill="white"/>
</g>
<defs>
<clipPath id="clip0_18084_841">
<rect width="19" height="19" fill="white" transform="translate(0 0.617676)"/>
</clipPath>
</defs>
</svg>
