<?xml version="1.0" encoding="utf-8"?><svg xmlns="http://www.w3.org/2000/svg" xmlns:xlink="http://www.w3.org/1999/xlink"><symbol viewBox="0 0 19 20" fill="currentColor" stroke="currentColor" id="facebook" xmlns="http://www.w3.org/2000/svg"><g clip-path="url(#aclip0_18084_834)"><path d="M16.625 0.617676H2.375C1.06519 0.617676 0 1.68286 0 2.99268V17.2427C0 18.5525 1.06519 19.6177 2.375 19.6177H9.5V13.0864H7.125V10.1177H9.5V7.74268C9.5 5.77499 11.0948 4.18018 13.0625 4.18018H15.4375V7.14893H14.25C13.5945 7.14893 13.0625 7.08718 13.0625 7.74268V10.1177H16.0312L14.8438 13.0864H13.0625V19.6177H16.625C17.9348 19.6177 19 18.5525 19 17.2427V2.99268C19 1.68286 17.9348 0.617676 16.625 0.617676Z"/></g><defs><clipPath id="aclip0_18084_834"><rect width="19" height="19" transform="translate(0 0.617676)"/></clipPath></defs></symbol><symbol viewBox="0 0 19 20" fill="currentColor" stroke="currentColor" id="instagram" xmlns="http://www.w3.org/2000/svg"><g clip-path="url(#bclip0_18084_848)"><path d="M11.1799 8.89729C10.8033 8.36993 10.1855 8.02338 9.49239 8.02338C8.79929 8.02338 8.18152 8.36993 7.80484 8.89729C7.56376 9.24384 7.41309 9.66572 7.41309 10.1177C7.41309 11.2629 8.34727 12.197 9.49239 12.197C10.6375 12.197 11.5717 11.2629 11.5717 10.1177C11.5717 9.66572 11.421 9.24384 11.1799 8.89729Z"/><path d="M12.4909 8.91229C12.6416 9.21364 12.732 9.6958 12.732 10.1177C12.732 11.8956 11.2855 13.3572 9.49247 13.3572C7.69945 13.3572 6.25298 11.9107 6.25298 10.1177C6.25298 9.68073 6.34338 9.21364 6.49405 8.91229H4.6709V13.7489C4.6709 14.3818 5.22839 14.9393 5.86122 14.9393H13.1237C13.7565 14.9393 14.314 14.3818 14.314 13.7489V8.91229H12.4909Z"/><path d="M13.7716 5.56731H12.0238V7.57128H14.0127V5.82346V5.55225L13.7716 5.56731Z"/><path d="M14.2236 0.626587H4.7613C2.13957 0.626587 0 2.76616 0 5.38789V14.8653C0 17.4719 2.13957 19.6115 4.7613 19.6115H14.2387C16.8604 19.6115 19 17.4719 19 14.8502V5.38789C18.9849 2.76616 16.8454 0.626587 14.2236 0.626587ZM15.3688 8.89859V13.7503C15.3688 15.016 14.3894 15.9953 13.1237 15.9953H5.86122C4.59556 15.9953 3.61618 15.016 3.61618 13.7503V8.89859V6.48781C3.61618 5.22215 4.59556 4.24276 5.86122 4.24276H13.1237C14.3894 4.24276 15.3688 5.22215 15.3688 6.48781V8.89859Z"/></g><defs><clipPath id="bclip0_18084_848"><rect width="19" height="19" transform="translate(0 0.617676)"/></clipPath></defs></symbol><symbol viewBox="0 0 19 20" fill="currentColor" stroke="currentColor" id="video-play-button" xmlns="http://www.w3.org/2000/svg"><g clip-path="url(#cclip0_18084_841)"><path d="M15.4375 0.617676H3.56248C1.59482 0.617676 0 2.21249 0 4.18016V16.0552C0 18.0229 1.59482 19.6176 3.56248 19.6176H15.4375C17.4052 19.6176 19 18.0228 19 16.0552V4.18016C19 2.21249 17.4052 0.617676 15.4375 0.617676ZM15.3366 12.2445C15.2724 13.0353 14.6716 14.0447 13.832 14.1908C11.1423 14.3998 7.95506 14.3737 5.16922 14.1908C4.29996 14.0815 3.72879 13.0341 3.66467 12.2445C3.5293 10.5843 3.5293 9.63909 3.66467 7.97896C3.72879 7.18929 4.31423 6.14782 5.16922 6.05285C7.92304 5.82127 11.1281 5.87115 13.832 6.05285C14.7986 6.08845 15.2724 7.08478 15.3366 7.87565C15.4695 9.53578 15.4695 10.5843 15.3366 12.2445Z"/><path d="M8.3125 12.4927L11.875 10.1177L8.3125 7.74268V12.4927Z"/></g><defs><clipPath id="cclip0_18084_841"><rect width="19" height="19" transform="translate(0 0.617676)"/></clipPath></defs></symbol></svg>